<?xml version="1.0" encoding="iso-8859-1"?>
<!-- Uploaded to: SVG Repo, www.svgrepo.com, Generator: SVG Repo Mixer Tools -->
<svg fill="#000000" height="800px" width="800px" version="1.1" id="Layer_1" xmlns="http://www.w3.org/2000/svg" xmlns:xlink="http://www.w3.org/1999/xlink" 
	 viewBox="0 0 330 330" xml:space="preserve">
<g id="XMLID_505_">
	<path id="XMLID_506_" d="M15,154.986h15v-30V45.014v-30H15c-8.284,0-15,6.715-15,15v109.973C0,148.271,6.716,154.986,15,154.986z"
		/>
	<path id="XMLID_507_" d="M330,30.014c0-8.285-6.717-15-15-15h-15v30v79.973v30h15c8.283,0,15-6.715,15-15V30.014z"/>
	<path id="XMLID_508_" d="M60,299.986c0,8.285,6.716,15,15,15h180c8.283,0,15-6.715,15-15v-45H60V299.986z"/>
	<path id="XMLID_509_" d="M270,167.169v-12.183v-30V45.014v-30h-65c-8.284,0-15,6.715-15,15c0,13.785-11.215,25-25,25
		c-13.785,0-25-11.215-25-25c0-8.285-6.717-15-15-15H60v30v79.973v30v16.331v53.669h210V167.169z"/>
</g>
</svg>